<svg xmlns="http://www.w3.org/2000/svg" style="display: none;"><symbol id="001-phone" viewBox="0 0 512.076 512.076"><title>001-phone</title><g transform="translate(-1 -1)"> <g> <g> <path d="M499.639,396.039l-103.646-69.12c-13.153-8.701-30.784-5.838-40.508,6.579l-30.191,38.818 c-3.88,5.116-10.933,6.6-16.546,3.482l-5.743-3.166c-19.038-10.377-42.726-23.296-90.453-71.04s-60.672-71.45-71.049-90.453 l-3.149-5.743c-3.161-5.612-1.705-12.695,3.413-16.606l38.792-30.182c12.412-9.725,15.279-27.351,6.588-40.508l-69.12-103.646 C109.12,1.056,91.25-2.966,77.461,5.323L34.12,31.358C20.502,39.364,10.511,52.33,6.242,67.539 c-15.607,56.866-3.866,155.008,140.706,299.597c115.004,114.995,200.619,145.92,259.465,145.92 c13.543,0.058,27.033-1.704,40.107-5.239c15.212-4.264,28.18-14.256,36.181-27.878l26.061-43.315 C517.063,422.832,513.043,404.951,499.639,396.039z M494.058,427.868l-26.001,43.341c-5.745,9.832-15.072,17.061-26.027,20.173 c-52.497,14.413-144.213,2.475-283.008-136.32S8.29,124.559,22.703,72.054c3.116-10.968,10.354-20.307,20.198-26.061 l43.341-26.001c5.983-3.6,13.739-1.855,17.604,3.959l37.547,56.371l31.514,47.266c3.774,5.707,2.534,13.356-2.85,17.579 l-38.801,30.182c-11.808,9.029-15.18,25.366-7.91,38.332l3.081,5.598c10.906,20.002,24.465,44.885,73.967,94.379 c49.502,49.493,74.377,63.053,94.37,73.958l5.606,3.089c12.965,7.269,29.303,3.898,38.332-7.91l30.182-38.801 c4.224-5.381,11.87-6.62,17.579-2.85l103.637,69.12C495.918,414.126,497.663,421.886,494.058,427.868z"/> <path d="M291.161,86.39c80.081,0.089,144.977,64.986,145.067,145.067c0,4.713,3.82,8.533,8.533,8.533s8.533-3.82,8.533-8.533 c-0.099-89.503-72.63-162.035-162.133-162.133c-4.713,0-8.533,3.82-8.533,8.533S286.448,86.39,291.161,86.39z"/> <path d="M291.161,137.59c51.816,0.061,93.806,42.051,93.867,93.867c0,4.713,3.821,8.533,8.533,8.533 c4.713,0,8.533-3.82,8.533-8.533c-0.071-61.238-49.696-110.863-110.933-110.933c-4.713,0-8.533,3.82-8.533,8.533 S286.448,137.59,291.161,137.59z"/> <path d="M291.161,188.79c23.552,0.028,42.638,19.114,42.667,42.667c0,4.713,3.821,8.533,8.533,8.533s8.533-3.82,8.533-8.533 c-0.038-32.974-26.759-59.696-59.733-59.733c-4.713,0-8.533,3.82-8.533,8.533S286.448,188.79,291.161,188.79z"/> </g> </g> </g></symbol><symbol id="002-pin" viewBox="0 0 61.168 61.168"><title>002-pin</title><path d="M30.938,26.584c3.859,0,7-3.141,7-7s-3.141-7-7-7s-7,3.141-7,7S27.078,26.584,30.938,26.584z M30.938,14.584 c2.757,0,5,2.243,5,5s-2.243,5-5,5s-5-2.243-5-5S28.181,14.584,30.938,14.584z"/><path d="M50.216,37.584h-7.161l3.047-4.4c5.755-7.671,4.922-20.28-1.781-26.982c-3.621-3.622-8.437-5.617-13.56-5.617 c-5.122,0-9.938,1.995-13.56,5.617c-6.703,6.702-7.536,19.312-1.804,26.952l3.068,4.431h-7.513L0,60.584h61.168L50.216,37.584z M17.02,31.984c-5.199-6.933-4.454-18.32,1.596-24.369c3.244-3.244,7.558-5.031,12.146-5.031s8.901,1.787,12.146,5.031 c6.05,6.049,6.795,17.437,1.573,24.399L30.761,51.827l-9.863-14.243h0L17.02,31.984z M12.216,39.584h7.634l10.911,15.757 l10.91-15.757h7.281l9.048,19H3.168L12.216,39.584z"/></symbol><symbol id="003-message" viewBox="0 0 512 512"><title>003-message</title><g> <g> <path d="M511.609,197.601c-0.001-0.77-0.173-1.933-0.472-2.603c-0.787-2.854-2.536-5.461-5.154-7.281l-73.292-50.948V82.153 c0-7.24-5.872-13.112-13.112-13.112H335.26l-71.743-49.878c-4.484-3.121-10.437-3.134-14.935-0.026l-72.206,49.904H92.426 c-7.242,0-13.112,5.872-13.112,13.112v53.973L5.666,187.027c-3.623,2.504-5.583,6.507-5.645,10.6 C0.017,197.704,0,197.777,0,197.857l0.391,284.235c0.005,3.477,1.391,6.81,3.852,9.266c2.458,2.451,5.788,3.827,9.26,3.827 c0.007,0,0.012,0,0.018,0l485.385-0.667c7.24-0.01,13.104-5.889,13.094-13.13L511.609,197.601z M432.69,168.708l41.898,29.118 l-41.898,29.128V168.708z M256.015,45.884l33.31,23.156h-66.812L256.015,45.884z M105.538,95.265h300.928v149.921L305.43,315.428 l-41.194-31.954c-0.064-0.05-0.119-0.081-0.181-0.126c-4.604-3.454-11.116-3.581-15.894,0.126l-41.493,32.185l-101.13-69.893 V95.265z M79.314,168.003v59.64l-43.146-29.819L79.314,168.003z M26.258,222.867l158.669,109.655L26.578,455.346L26.258,222.867z M51.875,468.909l204.324-158.484l203.591,157.923L51.875,468.909z M327.144,332.271l158.276-110.036l0.32,233.059 L327.144,332.271z"/> </g> </g><g> <g> <path d="M344.77,147.713H167.234c-7.24,0-13.112,5.872-13.112,13.112s5.872,13.112,13.112,13.112H344.77 c7.242,0,13.112-5.872,13.112-13.112S352.012,147.713,344.77,147.713z"/> </g> </g><g> <g> <path d="M344.77,215.895H167.234c-7.24,0-13.112,5.872-13.112,13.112c0,7.24,5.872,13.112,13.112,13.112H344.77 c7.242,0,13.112-5.872,13.112-13.112C357.882,221.767,352.012,215.895,344.77,215.895z"/> </g> </g></symbol><symbol id="004-museum" viewBox="-6 0 591 591.1795"><title>004-museum</title><path d="M 10.964844 163.253906 C 10.75 164.421875 10.628906 165.605469 10.589844 166.789062 L 10.589844 191.101562 C 10.621094 201.121094 16.84375 210.078125 26.230469 213.597656 L 26.230469 249.371094 C 26.273438 261.347656 35.691406 271.191406 47.652344 271.757812 L 47.652344 478.425781 C 35.691406 478.996094 26.273438 488.839844 26.230469 500.8125 L 26.230469 536.480469 C 16.824219 540.09375 10.605469 549.117188 10.589844 559.1875 L 10.589844 582.96875 C 10.589844 587.402344 14.191406 591 18.625 591 L 560.390625 591 C 564.824219 591 568.421875 587.402344 568.421875 582.96875 L 568.421875 559.1875 C 568.40625 549.113281 562.1875 540.089844 552.785156 536.480469 L 552.785156 500.601562 C 552.742188 488.625 543.320312 478.78125 531.363281 478.214844 L 531.363281 271.757812 C 543.320312 271.191406 552.742188 261.347656 552.785156 249.371094 L 552.785156 213.597656 C 562.167969 210.078125 568.390625 201.121094 568.421875 191.101562 L 568.421875 166.949219 C 568.386719 165.765625 568.261719 164.582031 568.046875 163.414062 C 572.085938 165.203125 576.808594 163.382812 578.597656 159.34375 C 580.386719 155.308594 578.566406 150.585938 574.53125 148.792969 L 293.203125 0.929688 C 290.855469 -0.308594 288.050781 -0.308594 285.703125 0.929688 L 4.378906 148.632812 C 0.453125 150.707031 -1.050781 155.5625 1.015625 159.488281 C 2.90625 163.074219 7.171875 164.691406 10.964844 163.253906 Z M 42.296875 227.519531 L 42.296875 215.148438 L 134.945312 215.148438 L 134.945312 227.414062 Z M 248.589844 271.8125 L 248.589844 478.425781 C 236.628906 478.996094 227.210938 488.839844 227.167969 500.8125 L 227.167969 534.980469 L 150.902344 534.980469 L 150.902344 500.8125 C 150.859375 488.839844 141.441406 478.996094 129.480469 478.425781 L 129.480469 271.757812 C 141.441406 271.191406 150.859375 261.347656 150.902344 249.371094 L 150.902344 215.148438 L 227.058594 215.148438 L 227.058594 249.320312 C 227.078125 261.316406 236.503906 271.183594 248.484375 271.757812 Z M 243.234375 227.519531 L 243.234375 215.148438 L 335.886719 215.148438 L 335.886719 227.414062 Z M 449.53125 271.8125 L 449.53125 478.425781 C 437.570312 478.996094 428.148438 488.839844 428.105469 500.8125 L 428.105469 534.980469 L 351.84375 534.980469 L 351.84375 500.8125 C 351.800781 488.839844 342.378906 478.996094 330.421875 478.425781 L 330.421875 271.757812 C 342.378906 271.191406 351.800781 261.347656 351.84375 249.371094 L 351.84375 215.148438 L 428 215.148438 L 428 249.320312 C 428.015625 261.316406 437.441406 271.183594 449.421875 271.757812 Z M 444.175781 227.519531 L 444.175781 215.148438 L 536.824219 215.148438 L 536.824219 227.414062 Z M 536.824219 522.71875 L 536.824219 534.980469 L 444.066406 534.980469 L 444.066406 522.71875 Z M 335.886719 522.71875 L 335.886719 534.980469 L 243.128906 534.980469 L 243.128906 522.71875 Z M 256.515625 255.851562 L 249.554688 255.851562 C 246.003906 255.851562 243.128906 252.976562 243.128906 249.425781 L 243.128906 243.585938 L 335.777344 243.585938 L 335.777344 249.425781 C 335.777344 252.976562 332.902344 255.851562 329.351562 255.851562 Z M 314.410156 271.917969 L 314.410156 478.320312 L 264.550781 478.320312 L 264.550781 271.917969 C 264.550781 271.917969 314.410156 271.917969 314.410156 271.917969 Z M 256.515625 494.386719 L 329.351562 494.386719 C 332.902344 494.386719 335.777344 497.261719 335.777344 500.8125 L 335.777344 506.652344 L 243.128906 506.652344 L 243.128906 500.8125 C 243.128906 497.261719 246.003906 494.386719 249.554688 494.386719 Z M 134.839844 522.71875 L 134.839844 534.980469 L 42.1875 534.980469 L 42.1875 522.71875 Z M 42.1875 249.585938 L 42.1875 243.585938 L 134.839844 243.585938 L 134.839844 249.425781 C 134.839844 252.976562 131.964844 255.851562 128.410156 255.851562 L 48.453125 255.851562 C 44.945312 255.765625 42.15625 252.878906 42.1875 249.371094 Z M 113.417969 272.078125 L 113.417969 478.320312 L 63.609375 478.320312 L 63.609375 271.917969 Z M 42.1875 500.976562 C 42.1875 497.421875 45.0625 494.546875 48.613281 494.546875 L 128.410156 494.546875 C 131.964844 494.546875 134.839844 497.421875 134.839844 500.976562 L 134.839844 506.8125 L 42.1875 506.8125 Z M 552.355469 559.511719 L 552.355469 575.253906 L 26.550781 575.253906 L 26.550781 559.511719 C 26.550781 554.925781 30.265625 551.207031 34.851562 551.207031 L 544.054688 551.207031 C 548.574219 551.207031 552.269531 554.828125 552.355469 559.347656 C 552.355469 559.347656 552.355469 559.511719 552.355469 559.511719 Z M 536.71875 500.976562 L 536.71875 506.8125 L 444.066406 506.8125 L 444.066406 500.976562 C 444.066406 497.421875 446.941406 494.546875 450.492188 494.546875 L 530.453125 494.546875 C 533.878906 494.632812 536.632812 497.386719 536.71875 500.8125 Z M 465.488281 478.480469 L 465.488281 271.917969 L 515.347656 271.917969 L 515.347656 478.320312 Z M 536.71875 249.585938 C 536.71875 253.136719 533.84375 256.011719 530.292969 256.011719 L 450.546875 256.011719 C 446.996094 256.011719 444.121094 253.136719 444.121094 249.585938 L 444.121094 243.585938 L 536.769531 243.585938 Z M 289.453125 16.996094 L 528.683594 142.742188 L 50.222656 142.742188 Z M 26.550781 166.949219 C 26.550781 162.515625 30.148438 158.917969 34.582031 158.917969 L 544.324219 158.917969 C 548.757812 158.917969 552.355469 162.515625 552.355469 166.949219 L 552.355469 191.265625 C 552.355469 195.699219 548.757812 199.296875 544.324219 199.296875 L 34.582031 199.296875 C 30.148438 199.296875 26.550781 195.699219 26.550781 191.265625 Z M 26.550781 166.949219 " style=" stroke:none;fill-rule:nonzero;fill:rgb(11.372549%,12.941176%,15.686275%);fill-opacity:1;"/></symbol></svg>